<svg xmlns="http://www.w3.org/2000/svg" width="1024" height="1024" viewBox="0 0 1024 1024">
<g fill="black">
<path d="M 332,194 L 331,195 L 321,195 L 320,196 L 315,196 L 314,197 L 310,197 L 309,198 L 305,198 L 304,199 L 302,199 L 301,200 L 298,200 L 297,201 L 295,201 L 294,202 L 292,202 L 291,203 L 289,203 L 288,204 L 286,204 L 285,205 L 284,205 L 283,206 L 282,206 L 281,207 L 279,207 L 278,208 L 277,208 L 276,209 L 275,209 L 274,210 L 273,210 L 272,211 L 271,211 L 270,212 L 269,212 L 267,214 L 266,214 L 265,215 L 264,215 L 262,217 L 261,217 L 259,219 L 258,219 L 256,221 L 255,221 L 253,223 L 252,223 L 248,227 L 247,227 L 239,235 L 238,235 L 234,239 L 234,240 L 227,247 L 227,248 L 223,252 L 223,253 L 220,256 L 220,257 L 218,259 L 218,260 L 216,262 L 216,263 L 215,264 L 215,265 L 213,267 L 213,268 L 212,269 L 212,270 L 211,271 L 211,272 L 210,273 L 210,274 L 209,275 L 209,276 L 208,277 L 208,278 L 207,279 L 207,280 L 206,281 L 206,282 L 205,283 L 205,284 L 204,285 L 204,287 L 203,288 L 203,289 L 202,290 L 202,292 L 201,293 L 201,295 L 200,296 L 200,298 L 199,299 L 199,301 L 198,302 L 198,305 L 197,306 L 197,309 L 196,310 L 196,314 L 195,315 L 195,319 L 194,320 L 194,326 L 193,327 L 193,337 L 192,338 L 192,661 L 193,662 L 193,692 L 194,693 L 194,701 L 195,702 L 195,707 L 196,708 L 196,712 L 197,713 L 197,716 L 198,717 L 198,720 L 199,721 L 199,723 L 200,724 L 200,726 L 201,727 L 201,729 L 202,730 L 202,732 L 203,733 L 203,734 L 204,735 L 204,737 L 205,738 L 205,739 L 206,740 L 206,741 L 207,742 L 207,743 L 208,744 L 208,745 L 209,746 L 209,747 L 210,748 L 210,749 L 211,750 L 211,751 L 212,752 L 212,753 L 213,754 L 213,755 L 215,757 L 215,758 L 216,759 L 216,760 L 218,762 L 218,763 L 221,766 L 221,767 L 223,769 L 223,770 L 227,774 L 227,775 L 234,782 L 234,783 L 241,790 L 242,790 L 248,796 L 249,796 L 253,800 L 254,800 L 257,803 L 258,803 L 260,805 L 261,805 L 262,806 L 263,806 L 265,808 L 266,808 L 267,809 L 268,809 L 270,811 L 271,811 L 272,812 L 273,812 L 274,813 L 275,813 L 276,814 L 277,814 L 278,815 L 279,815 L 280,816 L 281,816 L 282,817 L 284,817 L 285,818 L 286,818 L 287,819 L 289,819 L 290,820 L 291,820 L 292,821 L 294,821 L 295,822 L 297,822 L 298,823 L 301,823 L 302,824 L 304,824 L 305,825 L 308,825 L 309,826 L 313,826 L 314,827 L 318,827 L 319,828 L 327,828 L 328,829 L 342,829 L 343,830 L 676,830 L 677,829 L 694,829 L 695,828 L 702,828 L 703,827 L 708,827 L 709,826 L 713,826 L 714,825 L 717,825 L 718,824 L 721,824 L 722,823 L 724,823 L 725,822 L 727,822 L 728,821 L 730,821 L 731,820 L 733,820 L 734,819 L 736,819 L 737,818 L 738,818 L 739,817 L 740,817 L 741,816 L 743,816 L 744,815 L 745,815 L 746,814 L 747,814 L 748,813 L 749,813 L 750,812 L 751,812 L 753,810 L 754,810 L 755,809 L 756,809 L 757,808 L 758,808 L 760,806 L 761,806 L 763,804 L 764,804 L 766,802 L 767,802 L 770,799 L 771,799 L 774,796 L 775,796 L 794,777 L 794,776 L 798,772 L 798,771 L 801,768 L 801,767 L 803,765 L 803,764 L 805,762 L 805,761 L 807,759 L 807,758 L 808,757 L 808,756 L 810,754 L 810,753 L 811,752 L 811,751 L 812,750 L 812,749 L 813,748 L 813,747 L 814,746 L 814,745 L 815,744 L 815,743 L 816,742 L 816,741 L 817,740 L 817,739 L 818,738 L 818,736 L 819,735 L 819,734 L 820,733 L 820,731 L 821,730 L 821,728 L 822,727 L 822,725 L 823,724 L 823,722 L 824,721 L 824,719 L 825,718 L 825,715 L 826,714 L 826,710 L 827,709 L 827,705 L 828,704 L 828,699 L 829,698 L 829,688 L 830,687 L 830,333 L 829,332 L 829,323 L 828,322 L 828,316 L 827,315 L 827,311 L 826,310 L 826,307 L 825,306 L 825,303 L 824,302 L 824,300 L 823,299 L 823,297 L 822,296 L 822,293 L 821,292 L 821,291 L 820,290 L 820,288 L 819,287 L 819,285 L 818,284 L 818,283 L 817,282 L 817,281 L 816,280 L 816,279 L 815,278 L 815,276 L 814,275 L 814,274 L 813,273 L 813,272 L 812,271 L 812,270 L 810,268 L 810,267 L 809,266 L 809,265 L 808,264 L 808,263 L 806,261 L 806,260 L 804,258 L 804,257 L 802,255 L 802,254 L 799,251 L 799,250 L 795,246 L 795,245 L 786,236 L 786,235 L 785,235 L 776,226 L 775,226 L 771,222 L 770,222 L 768,220 L 767,220 L 765,218 L 764,218 L 762,216 L 761,216 L 760,215 L 759,215 L 757,213 L 756,213 L 755,212 L 754,212 L 753,211 L 752,211 L 751,210 L 750,210 L 749,209 L 748,209 L 747,208 L 746,208 L 745,207 L 744,207 L 743,206 L 742,206 L 741,205 L 739,205 L 738,204 L 737,204 L 736,203 L 734,203 L 733,202 L 731,202 L 730,201 L 728,201 L 727,200 L 724,200 L 723,199 L 721,199 L 720,198 L 717,198 L 716,197 L 711,197 L 710,196 L 705,196 L 704,195 L 695,195 L 694,194 Z" />
</g>
</svg>